<svg width="189" height="159" viewBox="0 0 189 159" fill="none" xmlns="http://www.w3.org/2000/svg">
<g clip-path="url(#clip0)">
<path d="M88.652 84.4812L79.5293 75.3291V93.6333L88.652 84.4812Z" fill="#779CBC"/>
<path d="M189 157.933V0.234863L159.995 29.3339V157.933H189Z" fill="#539DDB"/>
<path d="M121.633 0.234863H67.3662L94.4997 27.4565L121.633 0.234863Z" fill="#578BB8"/>
<path d="M68.7698 69.6967L39.7646 40.5977V132.119L68.7698 103.02V69.6967Z" fill="#396E9B"/>
<path d="M69.7051 119.447L31.3438 157.933H69.7051V119.447Z" fill="#4E82AE"/>
<path d="M29.0049 29.099L0 0V157.933H19.6485L29.0049 148.546V29.099Z" fill="#084A83"/>
<path d="M149.234 157.933V46.6993V46.23L119.762 75.7984V157.933H149.234Z" fill="#75B0E2"/>
<path d="M109.471 157.933H79.998V109.591L109.471 80.0225V157.933Z" fill="#99C5EA"/>
</g>
<defs>
<clipPath id="clip0">
<rect width="189" height="158.167" fill="white"/>
</clipPath>
</defs>
</svg>
